<svg width="28" height="28" viewBox="0 0 28 28" fill="none" xmlns="http://www.w3.org/2000/svg">
<path d="M7.25628 11.5174C6.91457 11.1703 6.91457 10.6075 7.25628 10.2603C7.59799 9.91322 8.15201 9.91322 8.49372 10.2603L13.125 14.9653L14 15.7778L14.875 14.9653L19.5063 10.2603C19.8217 9.93992 20.318 9.91527 20.6613 10.1864L20.7437 10.2603C21.0854 10.6075 21.0854 11.1703 20.7437 11.5174L14.6187 17.7397L14.5473 17.8047L14.5397 17.8109C14.5336 17.8157 14.5273 17.8207 14.5209 17.8255C14.4997 17.8413 14.478 17.8562 14.4556 17.8702C14.445 17.8768 14.4343 17.8831 14.4236 17.8892C14.4063 17.8988 14.3884 17.9081 14.3702 17.9168C14.3553 17.9238 14.3402 17.9305 14.3249 17.9367C14.3076 17.9437 14.2903 17.9501 14.2728 17.956C14.2597 17.9602 14.2463 17.9644 14.2327 17.9681C14.2139 17.9735 14.1949 17.9781 14.1757 17.9821C14.1605 17.9852 14.1452 17.9879 14.1299 17.9902C14.0878 17.9967 14.0443 18 14 18L13.9832 17.9998C13.9632 17.9995 13.9425 17.9983 13.9219 17.9965C13.9039 17.9949 13.8867 17.9928 13.8697 17.9902C13.8548 17.9879 13.8395 17.9852 13.8244 17.982C13.8051 17.9781 13.7861 17.9735 13.7674 17.9682C13.7537 17.9644 13.7403 17.9602 13.7269 17.9558C13.7097 17.9501 13.6924 17.9437 13.6753 17.9368C13.6598 17.9305 13.6447 17.9238 13.6297 17.9167C13.6116 17.9081 13.5937 17.8989 13.5763 17.889C13.5657 17.8831 13.555 17.8768 13.5444 17.8702C13.522 17.8563 13.5003 17.8413 13.4792 17.8255C13.445 17.7997 13.4123 17.7711 13.3813 17.7397L7.25628 11.5174Z" fill="#241A29"/>
</svg>
